<mxfile host="app.diagrams.net" modified="2022-02-25T12:18:43.470Z" agent="5.0 (X11; Linux x86_64) AppleWebKit/537.36 (KHTML, like Gecko) Chrome/98.0.4758.102 Safari/537.36" etag="gA82H7G-lxmRtFP2pt2I" version="16.6.3" type="github">
  <diagram id="pO6Rr9ULqXnvKBWLJfBj" name="Page-1">
    <mxGraphModel dx="1209" dy="708" grid="1" gridSize="10" guides="1" tooltips="1" connect="1" arrows="1" fold="1" page="1" pageScale="1" pageWidth="827" pageHeight="1169" math="0" shadow="0">
      <root>
        <mxCell id="0" />
        <mxCell id="1" parent="0" />
        <mxCell id="lcwugLPlFBkynjfSyLCF-1" value="Actor" style="shape=umlActor;verticalLabelPosition=bottom;verticalAlign=top;html=1;outlineConnect=0;" parent="1" vertex="1">
          <mxGeometry x="20" y="260" width="30" height="60" as="geometry" />
        </mxCell>
        <mxCell id="lcwugLPlFBkynjfSyLCF-2" value="" style="rounded=0;whiteSpace=wrap;html=1;fillColor=#dae8fc;strokeColor=#6c8ebf;" parent="1" vertex="1">
          <mxGeometry x="80" y="40" width="680" height="670" as="geometry" />
        </mxCell>
        <mxCell id="lcwugLPlFBkynjfSyLCF-4" value="Kursangebot ansehen" style="ellipse;whiteSpace=wrap;html=1;" parent="1" vertex="1">
          <mxGeometry x="120" y="60" width="120" height="80" as="geometry" />
        </mxCell>
        <mxCell id="lcwugLPlFBkynjfSyLCF-5" value="Kurs anmelden" style="ellipse;whiteSpace=wrap;html=1;" parent="1" vertex="1">
          <mxGeometry x="240" y="140" width="120" height="80" as="geometry" />
        </mxCell>
        <mxCell id="lcwugLPlFBkynjfSyLCF-6" value="Kurs abmelden" style="ellipse;whiteSpace=wrap;html=1;" parent="1" vertex="1">
          <mxGeometry x="230" y="310" width="120" height="80" as="geometry" />
        </mxCell>
        <mxCell id="lcwugLPlFBkynjfSyLCF-7" value="Anfahrt (Maps)" style="ellipse;whiteSpace=wrap;html=1;" parent="1" vertex="1">
          <mxGeometry x="100" y="420" width="120" height="80" as="geometry" />
        </mxCell>
        <mxCell id="lcwugLPlFBkynjfSyLCF-8" value="bereits angemeldete Kurse ansehen" style="ellipse;whiteSpace=wrap;html=1;" parent="1" vertex="1">
          <mxGeometry x="90" y="340" width="120" height="80" as="geometry" />
        </mxCell>
        <mxCell id="lcwugLPlFBkynjfSyLCF-9" value="Kontaktseite ansehen" style="ellipse;whiteSpace=wrap;html=1;" parent="1" vertex="1">
          <mxGeometry x="100" y="505" width="120" height="80" as="geometry" />
        </mxCell>
        <mxCell id="lcwugLPlFBkynjfSyLCF-11" value="" style="endArrow=none;html=1;rounded=0;exitX=0.5;exitY=0.5;exitDx=0;exitDy=0;exitPerimeter=0;entryX=0;entryY=1;entryDx=0;entryDy=0;" parent="1" source="lcwugLPlFBkynjfSyLCF-1" target="lcwugLPlFBkynjfSyLCF-4" edge="1">
          <mxGeometry width="50" height="50" relative="1" as="geometry">
            <mxPoint x="380" y="320" as="sourcePoint" />
            <mxPoint x="430" y="270" as="targetPoint" />
          </mxGeometry>
        </mxCell>
        <mxCell id="lcwugLPlFBkynjfSyLCF-12" value="" style="endArrow=none;html=1;rounded=0;entryX=0;entryY=0;entryDx=0;entryDy=0;exitX=0.5;exitY=0.5;exitDx=0;exitDy=0;exitPerimeter=0;" parent="1" source="lcwugLPlFBkynjfSyLCF-1" target="lcwugLPlFBkynjfSyLCF-8" edge="1">
          <mxGeometry width="50" height="50" relative="1" as="geometry">
            <mxPoint x="380" y="320" as="sourcePoint" />
            <mxPoint x="430" y="270" as="targetPoint" />
          </mxGeometry>
        </mxCell>
        <mxCell id="lcwugLPlFBkynjfSyLCF-17" value="Kursreinzelansicht ansehen" style="ellipse;whiteSpace=wrap;html=1;" parent="1" vertex="1">
          <mxGeometry x="120" y="210" width="120" height="80" as="geometry" />
        </mxCell>
        <mxCell id="lcwugLPlFBkynjfSyLCF-18" value="Extends" style="endArrow=block;endSize=16;endFill=0;html=1;rounded=0;exitX=0.5;exitY=0;exitDx=0;exitDy=0;entryX=0.5;entryY=1;entryDx=0;entryDy=0;" parent="1" source="lcwugLPlFBkynjfSyLCF-17" target="lcwugLPlFBkynjfSyLCF-4" edge="1">
          <mxGeometry width="160" relative="1" as="geometry">
            <mxPoint x="320" y="290" as="sourcePoint" />
            <mxPoint x="480" y="290" as="targetPoint" />
          </mxGeometry>
        </mxCell>
        <mxCell id="lcwugLPlFBkynjfSyLCF-19" value="Extends" style="endArrow=block;endSize=16;endFill=0;html=1;rounded=0;exitX=0.5;exitY=1;exitDx=0;exitDy=0;entryX=0.5;entryY=0;entryDx=0;entryDy=0;" parent="1" source="lcwugLPlFBkynjfSyLCF-17" target="lcwugLPlFBkynjfSyLCF-8" edge="1">
          <mxGeometry width="160" relative="1" as="geometry">
            <mxPoint x="270" y="140" as="sourcePoint" />
            <mxPoint x="263.6297036241135" y="210.07326013475176" as="targetPoint" />
          </mxGeometry>
        </mxCell>
        <mxCell id="lcwugLPlFBkynjfSyLCF-20" value="Extends" style="endArrow=block;endSize=16;endFill=0;html=1;rounded=0;exitX=0.5;exitY=1;exitDx=0;exitDy=0;entryX=1;entryY=0.5;entryDx=0;entryDy=0;" parent="1" source="lcwugLPlFBkynjfSyLCF-5" target="lcwugLPlFBkynjfSyLCF-17" edge="1">
          <mxGeometry width="160" relative="1" as="geometry">
            <mxPoint x="160" y="350" as="sourcePoint" />
            <mxPoint x="238.4000000000001" y="288.4" as="targetPoint" />
          </mxGeometry>
        </mxCell>
        <mxCell id="lcwugLPlFBkynjfSyLCF-21" value="Extends" style="endArrow=block;endSize=16;endFill=0;html=1;rounded=0;exitX=0;exitY=0;exitDx=0;exitDy=0;entryX=1;entryY=1;entryDx=0;entryDy=0;" parent="1" source="lcwugLPlFBkynjfSyLCF-6" target="lcwugLPlFBkynjfSyLCF-17" edge="1">
          <mxGeometry width="160" relative="1" as="geometry">
            <mxPoint x="320" y="250" as="sourcePoint" />
            <mxPoint x="367.57359312880726" y="228.28427124746167" as="targetPoint" />
          </mxGeometry>
        </mxCell>
        <mxCell id="lcwugLPlFBkynjfSyLCF-23" value="" style="endArrow=none;html=1;rounded=0;exitX=0.5;exitY=0.5;exitDx=0;exitDy=0;exitPerimeter=0;entryX=0;entryY=0.5;entryDx=0;entryDy=0;" parent="1" source="lcwugLPlFBkynjfSyLCF-1" target="lcwugLPlFBkynjfSyLCF-7" edge="1">
          <mxGeometry width="50" height="50" relative="1" as="geometry">
            <mxPoint x="45" y="300" as="sourcePoint" />
            <mxPoint x="227.57359312880703" y="128.2842712474619" as="targetPoint" />
          </mxGeometry>
        </mxCell>
        <mxCell id="lcwugLPlFBkynjfSyLCF-24" value="" style="endArrow=none;html=1;rounded=0;entryX=0;entryY=0.5;entryDx=0;entryDy=0;" parent="1" target="lcwugLPlFBkynjfSyLCF-9" edge="1">
          <mxGeometry width="50" height="50" relative="1" as="geometry">
            <mxPoint x="40" y="300" as="sourcePoint" />
            <mxPoint x="110" y="500" as="targetPoint" />
          </mxGeometry>
        </mxCell>
        <mxCell id="lcwugLPlFBkynjfSyLCF-26" value="Actor" style="shape=umlActor;verticalLabelPosition=bottom;verticalAlign=top;html=1;outlineConnect=0;" parent="1" vertex="1">
          <mxGeometry x="780" y="300" width="30" height="60" as="geometry" />
        </mxCell>
        <mxCell id="gMzWUJELkKCPLIjeOsA0-2" value="Kursangebot ansehen" style="ellipse;whiteSpace=wrap;html=1;" vertex="1" parent="1">
          <mxGeometry x="550" y="70" width="120" height="80" as="geometry" />
        </mxCell>
        <mxCell id="gMzWUJELkKCPLIjeOsA0-3" value="Extends" style="endArrow=block;endSize=16;endFill=0;html=1;rounded=0;exitX=0.5;exitY=0;exitDx=0;exitDy=0;entryX=0.053;entryY=0.715;entryDx=0;entryDy=0;entryPerimeter=0;" edge="1" parent="1" source="gMzWUJELkKCPLIjeOsA0-16" target="gMzWUJELkKCPLIjeOsA0-2">
          <mxGeometry width="160" relative="1" as="geometry">
            <mxPoint x="190" y="150" as="sourcePoint" />
            <mxPoint x="190" y="220" as="targetPoint" />
          </mxGeometry>
        </mxCell>
        <mxCell id="gMzWUJELkKCPLIjeOsA0-4" value="Kurs erstellen" style="ellipse;whiteSpace=wrap;html=1;" vertex="1" parent="1">
          <mxGeometry x="370" y="40" width="120" height="80" as="geometry" />
        </mxCell>
        <mxCell id="gMzWUJELkKCPLIjeOsA0-5" value="" style="endArrow=none;html=1;rounded=0;exitX=0.5;exitY=0.5;exitDx=0;exitDy=0;exitPerimeter=0;entryX=1;entryY=1;entryDx=0;entryDy=0;" edge="1" parent="1" source="lcwugLPlFBkynjfSyLCF-26" target="gMzWUJELkKCPLIjeOsA0-2">
          <mxGeometry width="50" height="50" relative="1" as="geometry">
            <mxPoint x="45" y="300" as="sourcePoint" />
            <mxPoint x="147.57359312880703" y="138.28427124746202" as="targetPoint" />
          </mxGeometry>
        </mxCell>
        <mxCell id="gMzWUJELkKCPLIjeOsA0-6" value="Mitgliederliste ansehen" style="ellipse;whiteSpace=wrap;html=1;" vertex="1" parent="1">
          <mxGeometry x="600" y="360" width="120" height="80" as="geometry" />
        </mxCell>
        <mxCell id="gMzWUJELkKCPLIjeOsA0-7" value="Mitglied erstellen" style="ellipse;whiteSpace=wrap;html=1;" vertex="1" parent="1">
          <mxGeometry x="380" y="380" width="120" height="80" as="geometry" />
        </mxCell>
        <mxCell id="gMzWUJELkKCPLIjeOsA0-8" value="Extends" style="endArrow=block;endSize=16;endFill=0;html=1;rounded=0;exitX=1;exitY=0.5;exitDx=0;exitDy=0;entryX=0;entryY=0.5;entryDx=0;entryDy=0;" edge="1" parent="1" source="gMzWUJELkKCPLIjeOsA0-7" target="gMzWUJELkKCPLIjeOsA0-6">
          <mxGeometry width="160" relative="1" as="geometry">
            <mxPoint x="560" y="120" as="sourcePoint" />
            <mxPoint x="521.5999999999999" y="162" as="targetPoint" />
          </mxGeometry>
        </mxCell>
        <mxCell id="gMzWUJELkKCPLIjeOsA0-9" value="Login" style="ellipse;whiteSpace=wrap;html=1;" vertex="1" parent="1">
          <mxGeometry x="100" y="600" width="120" height="80" as="geometry" />
        </mxCell>
        <mxCell id="gMzWUJELkKCPLIjeOsA0-11" value="" style="endArrow=open;endFill=1;endSize=12;html=1;rounded=0;exitX=0;exitY=1;exitDx=0;exitDy=0;exitPerimeter=0;entryX=0;entryY=0.5;entryDx=0;entryDy=0;" edge="1" parent="1" source="lcwugLPlFBkynjfSyLCF-1" target="gMzWUJELkKCPLIjeOsA0-9">
          <mxGeometry width="160" relative="1" as="geometry">
            <mxPoint x="330" y="440" as="sourcePoint" />
            <mxPoint x="490" y="440" as="targetPoint" />
          </mxGeometry>
        </mxCell>
        <mxCell id="gMzWUJELkKCPLIjeOsA0-12" value="include" style="text;align=center;fontStyle=0;verticalAlign=middle;spacingLeft=3;spacingRight=3;strokeColor=none;rotatable=0;points=[[0,0.5],[1,0.5]];portConstraint=eastwest;" vertex="1" parent="1">
          <mxGeometry x="30" y="470" width="40" height="10" as="geometry" />
        </mxCell>
        <mxCell id="gMzWUJELkKCPLIjeOsA0-13" value="Registrierung" style="ellipse;whiteSpace=wrap;html=1;" vertex="1" parent="1">
          <mxGeometry x="240" y="600" width="120" height="80" as="geometry" />
        </mxCell>
        <mxCell id="gMzWUJELkKCPLIjeOsA0-14" value="" style="endArrow=open;endFill=1;endSize=12;html=1;rounded=0;exitX=1;exitY=0.5;exitDx=0;exitDy=0;entryX=0;entryY=0.5;entryDx=0;entryDy=0;" edge="1" parent="1" source="gMzWUJELkKCPLIjeOsA0-9" target="gMzWUJELkKCPLIjeOsA0-13">
          <mxGeometry width="160" relative="1" as="geometry">
            <mxPoint x="30" y="330" as="sourcePoint" />
            <mxPoint x="110" y="650" as="targetPoint" />
          </mxGeometry>
        </mxCell>
        <mxCell id="gMzWUJELkKCPLIjeOsA0-15" value="include" style="text;align=center;fontStyle=0;verticalAlign=middle;spacingLeft=3;spacingRight=3;strokeColor=none;rotatable=0;points=[[0,0.5],[1,0.5]];portConstraint=eastwest;" vertex="1" parent="1">
          <mxGeometry x="210" y="620" width="40" height="10" as="geometry" />
        </mxCell>
        <mxCell id="gMzWUJELkKCPLIjeOsA0-16" value="Kurseinzelansicht ansehen" style="ellipse;whiteSpace=wrap;html=1;" vertex="1" parent="1">
          <mxGeometry x="440" y="150" width="120" height="80" as="geometry" />
        </mxCell>
        <mxCell id="gMzWUJELkKCPLIjeOsA0-17" value="Extends" style="endArrow=block;endSize=16;endFill=0;html=1;rounded=0;exitX=0.5;exitY=0;exitDx=0;exitDy=0;entryX=0;entryY=0;entryDx=0;entryDy=0;" edge="1" parent="1" source="gMzWUJELkKCPLIjeOsA0-4" target="gMzWUJELkKCPLIjeOsA0-2">
          <mxGeometry width="160" relative="1" as="geometry">
            <mxPoint x="500" y="100" as="sourcePoint" />
            <mxPoint x="577.5735931288073" y="91.71572875253833" as="targetPoint" />
          </mxGeometry>
        </mxCell>
        <mxCell id="gMzWUJELkKCPLIjeOsA0-18" value="Kurs bearbeiten" style="ellipse;whiteSpace=wrap;html=1;" vertex="1" parent="1">
          <mxGeometry x="370" y="250" width="120" height="80" as="geometry" />
        </mxCell>
        <mxCell id="gMzWUJELkKCPLIjeOsA0-19" value="Extends" style="endArrow=block;endSize=16;endFill=0;html=1;rounded=0;exitX=0.5;exitY=0;exitDx=0;exitDy=0;entryX=0;entryY=1;entryDx=0;entryDy=0;" edge="1" parent="1" source="gMzWUJELkKCPLIjeOsA0-18" target="gMzWUJELkKCPLIjeOsA0-16">
          <mxGeometry width="160" relative="1" as="geometry">
            <mxPoint x="510" y="160" as="sourcePoint" />
            <mxPoint x="566.3599999999999" y="137.20000000000005" as="targetPoint" />
          </mxGeometry>
        </mxCell>
        <mxCell id="gMzWUJELkKCPLIjeOsA0-20" value="Kurs löschen" style="ellipse;whiteSpace=wrap;html=1;" vertex="1" parent="1">
          <mxGeometry x="500" y="250" width="120" height="80" as="geometry" />
        </mxCell>
        <mxCell id="gMzWUJELkKCPLIjeOsA0-21" value="Extends" style="endArrow=block;endSize=16;endFill=0;html=1;rounded=0;exitX=0;exitY=0;exitDx=0;exitDy=0;entryX=1;entryY=1;entryDx=0;entryDy=0;" edge="1" parent="1" source="gMzWUJELkKCPLIjeOsA0-20" target="gMzWUJELkKCPLIjeOsA0-16">
          <mxGeometry width="160" relative="1" as="geometry">
            <mxPoint x="440" y="260" as="sourcePoint" />
            <mxPoint x="467.57359312880726" y="228.2842712474618" as="targetPoint" />
          </mxGeometry>
        </mxCell>
        <mxCell id="gMzWUJELkKCPLIjeOsA0-22" value="Mitgliedereinzelansicht ansehen" style="ellipse;whiteSpace=wrap;html=1;" vertex="1" parent="1">
          <mxGeometry x="500" y="470" width="120" height="80" as="geometry" />
        </mxCell>
        <mxCell id="gMzWUJELkKCPLIjeOsA0-23" value="Extends" style="endArrow=block;endSize=16;endFill=0;html=1;rounded=0;exitX=1;exitY=0;exitDx=0;exitDy=0;" edge="1" parent="1" source="gMzWUJELkKCPLIjeOsA0-22" target="gMzWUJELkKCPLIjeOsA0-6">
          <mxGeometry width="160" relative="1" as="geometry">
            <mxPoint x="510" y="430" as="sourcePoint" />
            <mxPoint x="610" y="410" as="targetPoint" />
          </mxGeometry>
        </mxCell>
        <mxCell id="gMzWUJELkKCPLIjeOsA0-24" value="Mitglied bearbeiten" style="ellipse;whiteSpace=wrap;html=1;" vertex="1" parent="1">
          <mxGeometry x="354" y="490" width="120" height="80" as="geometry" />
        </mxCell>
        <mxCell id="gMzWUJELkKCPLIjeOsA0-25" value="Extends" style="endArrow=block;endSize=16;endFill=0;html=1;rounded=0;exitX=1;exitY=0;exitDx=0;exitDy=0;entryX=0;entryY=0.5;entryDx=0;entryDy=0;" edge="1" parent="1" source="gMzWUJELkKCPLIjeOsA0-24" target="gMzWUJELkKCPLIjeOsA0-22">
          <mxGeometry width="160" relative="1" as="geometry">
            <mxPoint x="440" y="260" as="sourcePoint" />
            <mxPoint x="467.57359312880726" y="228.2842712474618" as="targetPoint" />
          </mxGeometry>
        </mxCell>
        <mxCell id="gMzWUJELkKCPLIjeOsA0-26" value="Mitglied löschen" style="ellipse;whiteSpace=wrap;html=1;" vertex="1" parent="1">
          <mxGeometry x="440" y="585" width="120" height="80" as="geometry" />
        </mxCell>
        <mxCell id="gMzWUJELkKCPLIjeOsA0-27" value="Extends" style="endArrow=block;endSize=16;endFill=0;html=1;rounded=0;entryX=0.5;entryY=1;entryDx=0;entryDy=0;" edge="1" parent="1" source="gMzWUJELkKCPLIjeOsA0-26" target="gMzWUJELkKCPLIjeOsA0-22">
          <mxGeometry width="160" relative="1" as="geometry">
            <mxPoint x="466.42640687119274" y="511.7157287525383" as="sourcePoint" />
            <mxPoint x="510" y="520" as="targetPoint" />
          </mxGeometry>
        </mxCell>
        <mxCell id="gMzWUJELkKCPLIjeOsA0-28" value="" style="endArrow=none;html=1;rounded=0;exitX=0.5;exitY=0.5;exitDx=0;exitDy=0;exitPerimeter=0;entryX=1;entryY=0;entryDx=0;entryDy=0;" edge="1" parent="1" source="lcwugLPlFBkynjfSyLCF-26" target="gMzWUJELkKCPLIjeOsA0-6">
          <mxGeometry width="50" height="50" relative="1" as="geometry">
            <mxPoint x="45" y="300" as="sourcePoint" />
            <mxPoint x="147.57359312880703" y="138.28427124746202" as="targetPoint" />
          </mxGeometry>
        </mxCell>
      </root>
    </mxGraphModel>
  </diagram>
</mxfile>
